<svg width="107" height="19" viewBox="0 0 107 19" fill="none" xmlns="http://www.w3.org/2000/svg">
    <path fill-rule="evenodd" clip-rule="evenodd" d="M7.993 2.833A6.663 6.663 0 0 0 1.333 9.5c0 3.68 2.98 6.666 6.66 6.666A6.67 6.67 0 0 0 14.666 9.5a6.67 6.67 0 0 0-6.673-6.667zm.007 12A5.332 5.332 0 0 1 2.666 9.5 5.332 5.332 0 0 1 8 4.166 5.332 5.332 0 0 1 13.333 9.5 5.332 5.332 0 0 1 8 14.833zm-.187-8.667h.04c.267 0 .48.214.48.48v3.027l2.58 1.533a.474.474 0 0 1 .167.66.475.475 0 0 1-.654.16l-2.766-1.66a.66.66 0 0 1-.327-.573V6.646c0-.266.213-.48.48-.48z" fill="#828282"/>
    <path d="M28.367 4v1.227c-.36.349-.838.955-1.437 1.82a18.658 18.658 0 0 0-1.578 2.797c-.454.974-.797 1.862-1.032 2.664-.15.515-.346 1.346-.586 2.492H22.18c.354-2.135 1.135-4.26 2.343-6.375.714-1.24 1.464-2.31 2.25-3.21h-6.187V4h7.781zm1.57-.516h1.407v4.282c.333-.422.633-.72.898-.891.453-.297 1.018-.445 1.696-.445 1.213 0 2.036.424 2.468 1.273.235.464.352 1.107.352 1.93V15h-1.446V9.727c0-.615-.078-1.066-.234-1.352-.255-.458-.734-.688-1.437-.688-.584 0-1.112.201-1.586.602-.474.401-.711 1.159-.711 2.274V15h-1.407V3.484zm12.032 11.82c-1.323 0-2.284-.361-2.883-1.085-.594-.73-.89-1.615-.89-2.656h1.468c.063.723.198 1.25.406 1.578.365.588 1.024.882 1.977.882.74 0 1.333-.197 1.781-.593.448-.396.672-.907.672-1.532 0-.77-.237-1.31-.71-1.617-.47-.307-1.123-.46-1.962-.46-.094 0-.19.002-.289.007-.094 0-.19.003-.289.008V8.594a6.113 6.113 0 0 0 .688.04c.526-.001.958-.085 1.296-.251.594-.292.891-.813.891-1.563 0-.557-.198-.987-.594-1.289a2.215 2.215 0 0 0-1.383-.453c-.937 0-1.586.313-1.945.938-.198.343-.31.833-.336 1.468h-1.39c0-.833.166-1.541.5-2.125.573-1.041 1.58-1.562 3.023-1.562 1.14 0 2.023.255 2.648.765.625.506.938 1.24.938 2.204 0 .687-.185 1.244-.555 1.671a2.33 2.33 0 0 1-.89.626c.588.161 1.047.473 1.375.937.333.458.5 1.02.5 1.688 0 1.067-.352 1.937-1.055 2.609-.703.672-1.7 1.008-2.992 1.008zm9.078-11.492c1.448 0 2.495.597 3.14 1.79.5.921.75 2.184.75 3.789 0 1.52-.226 2.778-.68 3.773-.655 1.427-1.728 2.14-3.218 2.14-1.344 0-2.344-.583-3-1.75-.547-.973-.82-2.28-.82-3.921 0-1.271.164-2.362.492-3.274.614-1.698 1.727-2.546 3.336-2.546zm-.016 10.211c.73 0 1.31-.322 1.742-.968.433-.646.649-1.85.649-3.61 0-1.27-.156-2.315-.469-3.133-.312-.822-.92-1.234-1.82-1.234-.828 0-1.435.39-1.82 1.172-.38.776-.57 1.922-.57 3.438 0 1.14.122 2.057.366 2.75.375 1.057 1.016 1.585 1.922 1.585zM62.805 10.17h8.78l-1.92 1.92a.664.664 0 1 0 .94.94l3.06-3.06c.26-.26.26-.68 0-.94l-3.06-3.06a.664.664 0 1 0-.94.94l1.92 1.927h-8.78c-.366 0-.666.3-.666.667 0 .367.3.667.666.667zM80.5 15c.052-.963.25-1.802.594-2.516.349-.713 1.026-1.362 2.031-1.945l1.5-.867c.672-.39 1.143-.724 1.414-1 .427-.432.64-.927.64-1.485 0-.65-.195-1.166-.585-1.546-.39-.386-.912-.579-1.563-.579-.963 0-1.63.365-2 1.094-.198.39-.307.933-.328 1.625h-1.43c.016-.974.196-1.768.54-2.383.609-1.083 1.684-1.625 3.226-1.625 1.281 0 2.216.347 2.805 1.04.594.692.89 1.463.89 2.312 0 .896-.315 1.661-.945 2.297-.365.37-1.018.818-1.96 1.344l-1.071.593c-.51.282-.912.55-1.203.805-.521.453-.85.956-.985 1.508h6.11V15H80.5zm9.938-7.922V6c1.015-.099 1.724-.263 2.124-.492.401-.235.701-.784.899-1.649h1.11V15h-1.5V7.078h-2.633zm8.406-3.594h1.406v4.282c.333-.422.633-.72.898-.891.454-.297 1.019-.445 1.696-.445 1.213 0 2.036.424 2.468 1.273.235.464.352 1.107.352 1.93V15h-1.445V9.727c0-.615-.078-1.066-.235-1.352-.255-.458-.734-.688-1.437-.688-.583 0-1.112.201-1.586.602-.474.401-.711 1.159-.711 2.274V15h-1.406V3.484z" fill="#828282"/>
</svg>
