<svg width="40" height="40" viewBox="0 0 40 40" fill="none" xmlns="http://www.w3.org/2000/svg">
    <path d="M20 0c11.046 0 20 8.954 20 20s-8.954 20-20 20S0 31.046 0 20 8.954 0 20 0z" fill="#7F4DA0"/>
    <path d="M25.329 17.464c-.098-.79-.34-1.41-.772-1.96-.56-.708-1.276-1.131-2.335-1.383-.691-.168-.97-.148-1.22.08-.232.214-.278.642-.1.92.125.201.27.273.67.352.535.098.904.226 1.24.418.712.412 1.044 1.056 1.08 2.098.017.49.059.64.23.814a.735.735 0 0 0 1.12-.124c.088-.143.101-.205.11-.538a5.275 5.275 0 0 0-.023-.677z" fill="#fff"/>
    <path d="M28.12 18.356c-.14-2.421-1.087-4.369-2.782-5.74-.955-.77-2.11-1.3-3.375-1.557-.463-.092-1.316-.166-1.463-.124a.899.899 0 0 0-.42.325c-.092.146-.113.474-.035.663.127.317.363.429 1.024.487 1.018.089 2.069.447 2.862.976a6.004 6.004 0 0 1 2.093 2.398c.402.832.65 2.033.643 3.108-.002.388.058.608.214.768.236.247.58.301.884.137.336-.177.415-.487.355-1.44zM31.21 27.681a2.652 2.652 0 0 0-.236-.474c-.498-.751-3.17-2.843-4.504-3.527-.762-.39-1.326-.521-1.745-.399-.45.127-.687.336-1.44 1.273-.305.376-.616.728-.7.783-.204.142-.607.257-.891.257-.66-.004-1.856-.431-2.775-.992-.715-.435-1.63-1.214-2.333-1.985-.829-.905-1.393-1.704-1.84-2.605-.576-1.158-.722-1.866-.481-2.384.06-.13.138-.269.174-.312a24.6 24.6 0 0 1 .817-.676c.805-.64.935-.787 1.085-1.226.19-.557.138-1.126-.154-1.7-.225-.434-.813-1.383-1.24-1.996-.564-.806-1.969-2.53-2.25-2.763-.504-.411-1.152-.483-1.866-.206-.754.293-2.167 1.431-2.771 2.226-.545.72-.754 1.23-.786 1.901-.027.554.02.783.312 1.49 2.286 5.551 5.696 9.983 10.381 13.501 2.448 1.838 4.986 3.238 7.619 4.194 1.535.558 2.202.585 2.988.127.331-.198 1.152-1.04 1.61-1.653.758-1.02 1.038-1.49 1.117-1.866.056-.256.012-.703-.09-.988z" fill="#fff"/>
    <path d="M30.963 18.912a11.026 11.026 0 0 0-.762-3.746c-.474-1.232-.955-2.036-1.862-3.123-.858-1.02-1.524-1.601-2.58-2.25-1.475-.902-3.27-1.5-5.28-1.751-.686-.088-.84-.082-1.051.059-.408.266-.402.929.006 1.19.136.084.256.115.804.186.843.114 1.384.22 2.026.396 2.52.688 4.457 2.096 5.752 4.186 1.084 1.741 1.534 3.483 1.47 5.708-.022.752-.006.884.109 1.065.22.337.8.403 1.098.124.186-.17.22-.299.257-.942.018-.336.021-.832.013-1.102z" fill="#fff"/>
</svg>
